<svg width="17" height="15" viewBox="0 0 17 15" fill="none" xmlns="http://www.w3.org/2000/svg">
<path d="M12.648 1.79865H13.9266C14.7723 1.79865 15.5409 2.1481 16.0976 2.71068C16.6542 3.27325 17 4.05022 17 4.90471V11.8939C17 12.7486 16.6543 13.5253 16.0977 14.0879C15.541 14.6506 14.7723 15 13.9266 15H3.07338C2.22767 15 1.45913 14.6506 0.902485 14.0879C0.345761 13.5253 0 12.7486 0 11.8939V4.90471C0 4.04998 0.345761 3.27318 0.902485 2.7106C1.45913 2.14794 2.22767 1.79865 3.07338 1.79865H4.35211C4.47295 1.40296 4.70904 1.05484 4.99942 0.773438C5.49317 0.294654 6.17096 0 6.69573 0H10.3042C10.829 0 11.5068 0.294654 12.0005 0.773438C12.2908 1.05484 12.5269 1.40296 12.6479 1.79865H12.648ZM8.5 4.61366C9.5341 4.61366 10.4708 5.03749 11.1486 5.72251C11.8265 6.40761 12.2458 7.3542 12.2458 8.39941C12.2458 9.44453 11.8265 10.3911 11.1486 11.0762C10.4706 11.7612 9.53426 12.1851 8.5 12.1851C7.46574 12.1851 6.52936 11.7612 5.85141 11.0762C5.17362 10.391 4.75425 9.44461 4.75425 8.39941C4.75425 7.35412 5.17362 6.40769 5.85141 5.72251C6.52921 5.03749 7.4659 4.61366 8.5 4.61366ZM10.3338 6.54604C9.86466 6.07188 9.21626 5.77864 8.5 5.77864C7.78381 5.77864 7.13534 6.07188 6.66618 6.54604C6.19717 7.0202 5.90687 7.67559 5.90687 8.39941C5.90687 9.12315 6.19717 9.77861 6.66618 10.2527C7.13534 10.7268 7.78381 11.0202 8.5 11.0202C9.21611 11.0202 9.86466 10.7268 10.3338 10.2527C10.803 9.77861 11.0931 9.12322 11.0931 8.39941C11.0931 7.67551 10.803 7.0202 10.3338 6.54604ZM13.9266 2.96355H12.1593C11.841 2.96355 11.583 2.70276 11.583 2.38114C11.583 2.09362 11.4233 1.82342 11.2037 1.6106C10.9192 1.33476 10.5611 1.16498 10.3043 1.16498H6.69581C6.43901 1.16498 6.08084 1.33476 5.79642 1.6106C5.57678 1.8235 5.41708 2.09362 5.41708 2.38114C5.41708 2.70276 5.15904 2.96355 4.84081 2.96355H3.07346C2.54574 2.96355 2.06557 3.18217 1.71733 3.53412C1.36908 3.88616 1.15269 4.37145 1.15269 4.90479V11.8939C1.15269 12.4271 1.36908 12.9126 1.71733 13.2645C2.06565 13.6165 2.54582 13.8352 3.07346 13.8352H13.9267C14.4544 13.8352 14.9347 13.6165 15.2829 13.2645C15.6312 12.9125 15.8475 12.4273 15.8475 11.8939V4.90479C15.8475 4.3716 15.6311 3.88616 15.2828 3.53428C14.9345 3.18225 14.4543 2.96355 13.9267 2.96355H13.9266Z" fill="white"/>
</svg>
