<svg width="9" height="4" viewBox="0 0 9 4" fill="none" xmlns="http://www.w3.org/2000/svg">
<path d="M8.042 0.606C7.96867 0.400667 7.83667 0.268667 7.646 0.21C7.44067 0.166 7.228 0.195333 7.008 0.298L4.17 1.728L1.31 0.298C1.09 0.21 0.884666 0.195333 0.694 0.254C0.503333 0.312667 0.363999 0.437333 0.275999 0.628C0.202666 0.804 0.195333 0.972667 0.254 1.134C0.297999 1.29533 0.407999 1.42733 0.583999 1.53L3.554 3.29C3.75933 3.422 3.96467 3.488 4.17 3.488C4.36067 3.488 4.55867 3.422 4.764 3.29L7.756 1.486C7.91733 1.398 8.02733 1.266 8.086 1.09C8.13 0.928667 8.11533 0.767333 8.042 0.606Z" fill="#303030"/>
</svg>
