<svg width="15" height="16" viewBox="0 0 15 16" fill="none" xmlns="http://www.w3.org/2000/svg">
<path d="M6.36173 14.4676H3.34366C2.36572 14.464 1.57281 13.674 1.56563 12.6961V6.69278C1.56755 6.36541 1.71404 6.05562 1.96585 5.84641L2.49729 5.45275C2.69131 5.24604 2.71104 4.93061 2.54429 4.70133C2.37754 4.47205 2.07138 4.39364 1.81494 4.51452L1.27038 4.92131C0.721064 5.34634 0.395083 5.99831 0.384644 6.69278V12.7027C0.388252 14.3354 1.71094 15.6581 3.34366 15.6617H6.36173C6.68785 15.6617 6.95222 15.3973 6.95222 15.0712C6.95222 14.7451 6.68785 14.4807 6.36173 14.4807V14.4676Z" fill="white"/>
<path d="M14.563 6.67963C14.5561 5.99026 14.2407 5.34023 13.7035 4.90816L9.16983 1.29304C8.17356 0.492226 6.75437 0.492226 5.7581 1.29304L4.32124 2.33624C4.05129 2.5301 3.9896 2.90609 4.18346 3.17605C4.37732 3.446 4.75331 3.50769 5.02327 3.31383L6.47981 2.2247C7.05151 1.75404 7.87643 1.75404 8.44812 2.2247L12.9818 5.83982C13.2427 6.04666 13.3969 6.35982 13.4017 6.69275V12.7026C13.4017 13.681 12.6086 14.4741 11.6302 14.4741H10.2852C10.1475 14.4741 10.0359 14.3625 10.0359 14.2248V11.5151C10.0359 10.6516 9.33783 9.95063 8.47436 9.94702H6.50606C6.09018 9.94702 5.69133 10.1122 5.39726 10.4063C5.10318 10.7004 4.93798 11.0992 4.93798 11.5151V12.5517C4.93798 12.8779 5.20235 13.1422 5.52847 13.1422C5.85459 13.1422 6.11896 12.8779 6.11896 12.5517V11.5151C6.1172 11.413 6.15651 11.3146 6.22807 11.2418C6.29963 11.169 6.39742 11.128 6.4995 11.128H8.4678C8.67797 11.128 8.84834 11.2984 8.84834 11.5085V14.2248C8.85195 15.0158 9.4942 15.6551 10.2852 15.6551H11.5974C13.2316 15.6551 14.5564 14.3303 14.5564 12.6961L14.563 6.67963Z" fill="white"/>
</svg>
