<svg width="35" height="19" viewBox="0 0 35 19" fill="none" xmlns="http://www.w3.org/2000/svg">
<path d="M1.677 14C1.50367 14 1.36933 13.9523 1.274 13.857C1.17867 13.753 1.131 13.6143 1.131 13.441V5.329C1.131 5.147 1.17433 5.00833 1.261 4.913C1.35633 4.81767 1.49067 4.77 1.664 4.77C1.83733 4.77 1.96733 4.81767 2.054 4.913C2.14933 5.00833 2.197 5.147 2.197 5.329V13.064H6.461C6.617 13.064 6.73833 13.1073 6.825 13.194C6.91167 13.272 6.955 13.3847 6.955 13.532C6.955 13.6793 6.91167 13.7963 6.825 13.883C6.73833 13.961 6.617 14 6.461 14H1.677ZM10.0356 14.117C9.60226 14.117 9.21226 14.0347 8.86559 13.87C8.52759 13.6967 8.25893 13.4627 8.05959 13.168C7.86026 12.8733 7.76059 12.544 7.76059 12.18C7.76059 11.712 7.87759 11.3437 8.11159 11.075C8.35426 10.8063 8.74859 10.6157 9.29459 10.503C9.84926 10.3903 10.6033 10.334 11.5566 10.334H12.1416V11.023H11.5696C10.8676 11.023 10.3129 11.0577 9.90559 11.127C9.50693 11.1877 9.22526 11.296 9.06059 11.452C8.90459 11.608 8.82659 11.829 8.82659 12.115C8.82659 12.4703 8.94793 12.7607 9.19059 12.986C9.44193 13.2113 9.77993 13.324 10.2046 13.324C10.5513 13.324 10.8546 13.2417 11.1146 13.077C11.3833 12.9123 11.5913 12.687 11.7386 12.401C11.8946 12.115 11.9726 11.7857 11.9726 11.413V9.931C11.9726 9.39367 11.8643 9.008 11.6476 8.774C11.4309 8.53133 11.0756 8.41 10.5816 8.41C10.2783 8.41 9.97493 8.449 9.67159 8.527C9.36826 8.605 9.04759 8.73067 8.70959 8.904C8.58826 8.96467 8.48426 8.98633 8.39759 8.969C8.31093 8.943 8.24159 8.89533 8.18959 8.826C8.13759 8.75667 8.10726 8.67867 8.09859 8.592C8.08993 8.49667 8.10726 8.40567 8.15059 8.319C8.20259 8.23233 8.28059 8.163 8.38459 8.111C8.76593 7.92033 9.14293 7.78167 9.51559 7.695C9.88826 7.60833 10.2436 7.565 10.5816 7.565C11.1276 7.565 11.5783 7.656 11.9336 7.838C12.2889 8.01133 12.5533 8.28 12.7266 8.644C12.8999 8.99933 12.9866 9.45867 12.9866 10.022V13.545C12.9866 13.7183 12.9433 13.8527 12.8566 13.948C12.7786 14.0433 12.6616 14.091 12.5056 14.091C12.3409 14.091 12.2153 14.0433 12.1286 13.948C12.0419 13.8527 11.9986 13.7183 11.9986 13.545V12.531H12.1156C12.0463 12.8603 11.9119 13.142 11.7126 13.376C11.5219 13.61 11.2836 13.792 10.9976 13.922C10.7116 14.052 10.3909 14.117 10.0356 14.117ZM17.0721 14.117C16.6821 14.117 16.2878 14.0693 15.8891 13.974C15.4991 13.8787 15.1351 13.714 14.7971 13.48C14.7105 13.4193 14.6498 13.35 14.6151 13.272C14.5805 13.1853 14.5675 13.103 14.5761 13.025C14.5935 12.9383 14.6281 12.8647 14.6801 12.804C14.7408 12.7433 14.8101 12.7087 14.8881 12.7C14.9748 12.6827 15.0701 12.7 15.1741 12.752C15.5121 12.96 15.8371 13.1073 16.1491 13.194C16.4698 13.272 16.7861 13.311 17.0981 13.311C17.5921 13.311 17.9648 13.22 18.2161 13.038C18.4675 12.856 18.5931 12.609 18.5931 12.297C18.5931 12.0543 18.5108 11.8637 18.3461 11.725C18.1815 11.5777 17.9215 11.465 17.5661 11.387L16.3831 11.127C15.8371 11.0143 15.4298 10.8193 15.1611 10.542C14.9011 10.2647 14.7711 9.905 14.7711 9.463C14.7711 9.073 14.8708 8.73933 15.0701 8.462C15.2781 8.176 15.5685 7.955 15.9411 7.799C16.3138 7.643 16.7471 7.565 17.2411 7.565C17.6225 7.565 17.9821 7.617 18.3201 7.721C18.6668 7.81633 18.9788 7.97233 19.2561 8.189C19.3428 8.24967 19.3991 8.32333 19.4251 8.41C19.4598 8.488 19.4641 8.57033 19.4381 8.657C19.4208 8.735 19.3818 8.80433 19.3211 8.865C19.2605 8.917 19.1868 8.94733 19.1001 8.956C19.0135 8.96467 18.9225 8.93867 18.8271 8.878C18.5671 8.70467 18.3028 8.579 18.0341 8.501C17.7655 8.41433 17.5011 8.371 17.2411 8.371C16.7558 8.371 16.3875 8.46633 16.1361 8.657C15.8848 8.84767 15.7591 9.099 15.7591 9.411C15.7591 9.65367 15.8371 9.853 15.9931 10.009C16.1491 10.165 16.3918 10.2777 16.7211 10.347L17.9041 10.594C18.4675 10.7153 18.8878 10.9103 19.1651 11.179C19.4511 11.439 19.5941 11.7943 19.5941 12.245C19.5941 12.817 19.3645 13.272 18.9051 13.61C18.4458 13.948 17.8348 14.117 17.0721 14.117ZM23.6705 14.117C23.1765 14.117 22.7605 14.0303 22.4225 13.857C22.0931 13.675 21.8461 13.415 21.6815 13.077C21.5168 12.7303 21.4345 12.31 21.4345 11.816V8.501H20.5635C20.4161 8.501 20.3035 8.46633 20.2255 8.397C20.1475 8.319 20.1085 8.215 20.1085 8.085C20.1085 7.955 20.1475 7.85533 20.2255 7.786C20.3035 7.71667 20.4161 7.682 20.5635 7.682H21.4345V6.187C21.4345 6.01367 21.4821 5.88367 21.5775 5.797C21.6728 5.70167 21.8028 5.654 21.9675 5.654C22.1321 5.654 22.2578 5.70167 22.3445 5.797C22.4398 5.88367 22.4875 6.01367 22.4875 6.187V7.682H24.1255C24.2728 7.682 24.3855 7.71667 24.4635 7.786C24.5415 7.85533 24.5805 7.955 24.5805 8.085C24.5805 8.215 24.5415 8.319 24.4635 8.397C24.3855 8.46633 24.2728 8.501 24.1255 8.501H22.4875V11.712C22.4875 12.206 22.5915 12.583 22.7995 12.843C23.0075 13.0943 23.3455 13.22 23.8135 13.22C23.9781 13.22 24.1168 13.2027 24.2295 13.168C24.3508 13.1333 24.4505 13.116 24.5285 13.116C24.6065 13.1073 24.6715 13.1333 24.7235 13.194C24.7755 13.2547 24.8015 13.3587 24.8015 13.506C24.8015 13.61 24.7798 13.7053 24.7365 13.792C24.7018 13.8787 24.6368 13.9393 24.5415 13.974C24.4375 14.0087 24.2988 14.039 24.1255 14.065C23.9608 14.0997 23.8091 14.117 23.6705 14.117Z" fill="#303030"/>
<path d="M34.4 5L34.4 14" stroke="#303030" stroke-width="0.8" stroke-linecap="round"/>
<path d="M30.949 11.843C30.8277 11.7997 30.7497 11.7217 30.715 11.609C30.689 11.4877 30.7063 11.362 30.767 11.232L31.612 9.555L30.767 7.865C30.715 7.735 30.7063 7.61367 30.741 7.501C30.7757 7.38833 30.8493 7.306 30.962 7.254C31.066 7.21067 31.1657 7.20633 31.261 7.241C31.3563 7.267 31.4343 7.332 31.495 7.436L32.535 9.191C32.613 9.31233 32.652 9.43367 32.652 9.555C32.652 9.66767 32.613 9.78467 32.535 9.906L31.469 11.674C31.417 11.7693 31.339 11.8343 31.235 11.869C31.1397 11.895 31.0443 11.8863 30.949 11.843Z" fill="#303030"/>
</svg>
