<svg width="5" height="7" viewBox="0 0 5 7" fill="none" xmlns="http://www.w3.org/2000/svg">
<path d="M3.538 0.36C3.78733 0.462 3.95167 0.643333 4.031 0.904C4.11033 1.16467 4.08767 1.431 3.963 1.703L3.113 3.522L3.946 5.307C4.082 5.60167 4.11033 5.87367 4.031 6.123C3.94033 6.38367 3.76467 6.57067 3.504 6.684C3.27733 6.786 3.05067 6.80867 2.824 6.752C2.586 6.69533 2.39333 6.55367 2.246 6.327L1.039 4.355C0.857666 4.07167 0.767 3.794 0.767 3.522C0.767 3.25 0.857666 2.97233 1.039 2.689L2.297 0.717C2.433 0.501667 2.62 0.36 2.858 0.292C3.08467 0.235333 3.31133 0.258 3.538 0.36Z" fill="#BEBBBB"/>
</svg>
