<svg width="36" height="18" viewBox="0 0 36 18" fill="none" xmlns="http://www.w3.org/2000/svg">
<path d="M1.638 13.091C1.47333 13.091 1.34767 13.0477 1.261 12.961C1.17433 12.8657 1.131 12.7313 1.131 12.558V4.29C1.131 4.11667 1.17433 3.98233 1.261 3.887C1.34767 3.79167 1.46033 3.744 1.599 3.744C1.73767 3.744 1.83733 3.77 1.898 3.822C1.96733 3.86533 2.04533 3.94767 2.132 4.069L7.8 11.622H7.488V4.264C7.488 4.09933 7.53133 3.97367 7.618 3.887C7.70467 3.79167 7.83033 3.744 7.995 3.744C8.151 3.744 8.268 3.79167 8.346 3.887C8.43267 3.97367 8.476 4.09933 8.476 4.264V12.571C8.476 12.7357 8.437 12.8657 8.359 12.961C8.28967 13.0477 8.18567 13.091 8.047 13.091C7.917 13.091 7.813 13.065 7.735 13.013C7.657 12.961 7.57467 12.8787 7.488 12.766L1.833 5.213H2.132V12.558C2.132 12.7313 2.08867 12.8657 2.002 12.961C1.91533 13.0477 1.794 13.091 1.638 13.091ZM13.458 13.117C12.7907 13.117 12.2144 12.987 11.729 12.727C11.2524 12.4583 10.8797 12.0813 10.611 11.596C10.351 11.1107 10.221 10.53 10.221 9.854C10.221 9.19533 10.351 8.62333 10.611 8.138C10.871 7.644 11.2264 7.25833 11.677 6.981C12.1364 6.70367 12.665 6.565 13.263 6.565C13.6877 6.565 14.069 6.63867 14.407 6.786C14.745 6.92467 15.031 7.12833 15.265 7.397C15.5077 7.66567 15.6897 7.99067 15.811 8.372C15.941 8.75333 16.006 9.18233 16.006 9.659C16.006 9.79767 15.967 9.90167 15.889 9.971C15.811 10.0317 15.6984 10.062 15.551 10.062H11.027V9.373H15.304L15.096 9.542C15.096 9.074 15.0267 8.67967 14.888 8.359C14.7494 8.02967 14.5457 7.77833 14.277 7.605C14.017 7.43167 13.6877 7.345 13.289 7.345C12.847 7.345 12.47 7.449 12.158 7.657C11.8547 7.85633 11.625 8.138 11.469 8.502C11.313 8.85733 11.235 9.27333 11.235 9.75V9.828C11.235 10.6253 11.4257 11.232 11.807 11.648C12.197 12.064 12.7474 12.272 13.458 12.272C13.7527 12.272 14.043 12.233 14.329 12.155C14.6237 12.077 14.9097 11.947 15.187 11.765C15.3084 11.687 15.4167 11.6523 15.512 11.661C15.616 11.661 15.6984 11.6913 15.759 11.752C15.8197 11.804 15.8587 11.8733 15.876 11.96C15.902 12.038 15.8934 12.1247 15.85 12.22C15.8154 12.3153 15.7417 12.3977 15.629 12.467C15.343 12.675 15.005 12.8353 14.615 12.948C14.225 13.0607 13.8394 13.117 13.458 13.117ZM17.5052 13.078C17.3925 13.078 17.2929 13.0433 17.2062 12.974C17.1195 12.9047 17.0719 12.8137 17.0632 12.701C17.0632 12.5797 17.1195 12.454 17.2322 12.324L19.5072 9.464V10.01L17.3752 7.345C17.2625 7.20633 17.2062 7.08067 17.2062 6.968C17.2149 6.85533 17.2625 6.76433 17.3492 6.695C17.4359 6.62567 17.5355 6.591 17.6482 6.591C17.7782 6.591 17.8865 6.617 17.9732 6.669C18.0685 6.71233 18.1552 6.786 18.2332 6.89L20.0922 9.243H19.7282L21.6002 6.89C21.6782 6.786 21.7605 6.71233 21.8472 6.669C21.9339 6.617 22.0422 6.591 22.1722 6.591C22.2935 6.591 22.3932 6.62567 22.4712 6.695C22.5579 6.76433 22.6012 6.85967 22.6012 6.981C22.6099 7.09367 22.5579 7.21933 22.4452 7.358L20.3262 9.984V9.503L22.6012 12.324C22.7052 12.454 22.7529 12.5797 22.7442 12.701C22.7442 12.8137 22.7009 12.9047 22.6142 12.974C22.5275 13.0433 22.4235 13.078 22.3022 13.078C22.1809 13.078 22.0725 13.052 21.9772 13C21.8905 12.9567 21.8039 12.883 21.7172 12.779L19.7152 10.257H20.0922L18.0902 12.779C18.0122 12.8743 17.9255 12.948 17.8302 13C17.7435 13.052 17.6352 13.078 17.5052 13.078ZM26.8443 13.117C26.3503 13.117 25.9343 13.0303 25.5963 12.857C25.267 12.675 25.02 12.415 24.8553 12.077C24.6906 11.7303 24.6083 11.31 24.6083 10.816V7.501H23.7373C23.59 7.501 23.4773 7.46633 23.3993 7.397C23.3213 7.319 23.2823 7.215 23.2823 7.085C23.2823 6.955 23.3213 6.85533 23.3993 6.786C23.4773 6.71667 23.59 6.682 23.7373 6.682H24.6083V5.187C24.6083 5.01367 24.656 4.88367 24.7513 4.797C24.8466 4.70167 24.9766 4.654 25.1413 4.654C25.306 4.654 25.4316 4.70167 25.5183 4.797C25.6136 4.88367 25.6613 5.01367 25.6613 5.187V6.682H27.2993C27.4466 6.682 27.5593 6.71667 27.6373 6.786C27.7153 6.85533 27.7543 6.955 27.7543 7.085C27.7543 7.215 27.7153 7.319 27.6373 7.397C27.5593 7.46633 27.4466 7.501 27.2993 7.501H25.6613V10.712C25.6613 11.206 25.7653 11.583 25.9733 11.843C26.1813 12.0943 26.5193 12.22 26.9873 12.22C27.152 12.22 27.2906 12.2027 27.4033 12.168C27.5246 12.1333 27.6243 12.116 27.7023 12.116C27.7803 12.1073 27.8453 12.1333 27.8973 12.194C27.9493 12.2547 27.9753 12.3587 27.9753 12.506C27.9753 12.61 27.9536 12.7053 27.9103 12.792C27.8756 12.8787 27.8106 12.9393 27.7153 12.974C27.6113 13.0087 27.4726 13.039 27.2993 13.065C27.1346 13.0997 26.983 13.117 26.8443 13.117Z" fill="#303030"/>
<path d="M31.949 11.843C31.8277 11.7997 31.7497 11.7217 31.715 11.609C31.689 11.4877 31.7063 11.362 31.767 11.232L32.612 9.555L31.767 7.865C31.715 7.735 31.7063 7.61367 31.741 7.501C31.7757 7.38833 31.8493 7.306 31.962 7.254C32.066 7.21067 32.1657 7.20633 32.261 7.241C32.3563 7.267 32.4343 7.332 32.495 7.436L33.535 9.191C33.613 9.31233 33.652 9.43367 33.652 9.555C33.652 9.66767 33.613 9.78467 33.535 9.906L32.469 11.674C32.417 11.7693 32.339 11.8343 32.235 11.869C32.1397 11.895 32.0443 11.8863 31.949 11.843Z" fill="#303030"/>
<path d="M33.949 11.843C33.8277 11.7997 33.7497 11.7217 33.715 11.609C33.689 11.4877 33.7063 11.362 33.767 11.232L34.612 9.555L33.767 7.865C33.715 7.735 33.7063 7.61367 33.741 7.501C33.7757 7.38833 33.8493 7.306 33.962 7.254C34.066 7.21067 34.1657 7.20633 34.261 7.241C34.3563 7.267 34.4343 7.332 34.495 7.436L35.535 9.191C35.613 9.31233 35.652 9.43367 35.652 9.555C35.652 9.66767 35.613 9.78467 35.535 9.906L34.469 11.674C34.417 11.7693 34.339 11.8343 34.235 11.869C34.1397 11.895 34.0443 11.8863 33.949 11.843Z" fill="#303030"/>
</svg>
