<svg width="191" height="191" viewBox="0 0 191 191" fill="none" xmlns="http://www.w3.org/2000/svg">
<path d="M95.5 0C112.011 -7.21707e-07 128.239 4.28057 142.602 12.4239C156.965 20.5673 168.971 32.2953 177.449 46.4632L95.5 95.5L95.5 0Z" fill="#FFF5D1"/>
<path d="M177.449 46.4632C184.566 58.3577 189.009 71.659 190.469 85.4433C191.929 99.2276 190.37 113.164 185.902 126.286C181.433 139.407 174.162 151.399 164.593 161.427C155.024 171.456 143.387 179.281 130.489 184.359L95.5 95.5L177.449 46.4632Z" fill="#DEE9FF"/>
<path d="M130.489 184.359C113.003 191.245 93.8744 192.818 75.4985 188.882C57.1225 184.946 40.3162 175.676 27.1844 162.232L95.5 95.5L130.489 184.359Z" fill="#FFE6E6"/>
<path d="M27.1844 162.232C14.0525 148.789 5.17893 131.77 1.67483 113.307C-1.82928 94.8437 0.191897 75.757 7.48522 58.4372C14.7785 41.1174 27.0198 26.3344 42.676 15.9395C58.3321 5.54463 76.7072 -2.24102e-07 95.5 0V95.5L27.1844 162.232Z" fill="#EBFBFB"/>
</svg>
