<svg width="27" height="27" viewBox="0 0 27 27" fill="none" xmlns="http://www.w3.org/2000/svg">
<path d="M12.5 24.5867C9.63729 24.5867 6.8922 23.4496 4.86773 21.4253C2.84363 19.4012 1.70636 16.656 1.70636 13.7936C1.70636 10.9309 2.84363 8.18584 4.86773 6.16137C6.89184 4.13727 9.63708 3 12.5 3C15.3625 3 18.1077 4.13727 20.1317 6.16137C22.156 8.18548 23.2931 10.9307 23.2931 13.7936C23.2931 16.6561 22.156 19.4014 20.1317 21.4253C18.1076 23.4496 15.3623 24.5867 12.5 24.5867ZM12.5 4.6605C10.0777 4.6605 7.75473 5.62269 6.04213 7.33556C4.32931 9.04821 3.36707 11.3712 3.36707 13.7934C3.36707 16.2155 4.32926 18.5384 6.04213 20.2513C7.75478 21.9641 10.0777 22.9263 12.5 22.9263C14.9221 22.9263 17.245 21.9641 18.9578 20.2513C20.6706 18.5386 21.6329 16.2157 21.6329 13.7934C21.6329 11.3711 20.6707 9.04816 18.9578 7.33556C17.2452 5.62274 14.9222 4.6605 12.5 4.6605Z" fill="black"/>
<path d="M12.5 18.2185C12.2798 18.2185 12.0687 18.1309 11.9129 17.9754C11.7572 17.8197 11.6696 17.6085 11.6696 17.3883C11.6756 15.3862 12.6189 13.5026 14.2186 12.2988C14.7033 11.9295 14.9888 11.3555 14.9907 10.7463C14.9884 10.2337 14.7841 9.74309 14.4217 9.3807C14.0594 9.01835 13.5685 8.8138 13.0562 8.81175H12.774C12.2615 8.81381 11.7708 9.01836 11.4084 9.3807C11.0461 9.74304 10.8415 10.2337 10.8395 10.7463C10.8395 11.0429 10.6811 11.3168 10.4242 11.4652C10.1673 11.6135 9.8509 11.6135 9.59403 11.4652C9.33716 11.3169 9.17896 11.0429 9.17896 10.7463C9.17896 9.79271 9.55757 8.8783 10.2318 8.20409C10.906 7.52988 11.8204 7.15125 12.774 7.15125H13.0562C14.0672 7.15578 15.0298 7.58507 15.709 8.33387C16.3881 9.08285 16.7214 10.0827 16.6275 11.0894C16.5334 12.0959 16.0208 13.0169 15.2148 13.6273C14.0324 14.5165 13.3347 15.9087 13.3302 17.3883C13.3302 17.6085 13.2426 17.8197 13.0871 17.9754C12.9314 18.1309 12.7202 18.2185 12.5 18.2185Z" fill="black"/>
<path d="M12.5 20.9724C12.2798 20.9724 12.0686 20.8849 11.9129 20.7292C11.7572 20.5736 11.6696 20.3623 11.6696 20.1421C11.6696 19.8454 11.8278 19.5715 12.0847 19.4231C12.3416 19.2748 12.6582 19.2748 12.915 19.4231C13.1719 19.5715 13.3301 19.8454 13.3301 20.1421C13.3301 20.3623 13.2426 20.5736 13.0871 20.7292C12.9313 20.8849 12.7202 20.9724 12.5 20.9724Z" fill="black"/>
</svg>
