<svg width="5" height="7" viewBox="0 0 5 7" fill="none" xmlns="http://www.w3.org/2000/svg">
<path d="M1.462 6.64C1.21267 6.538 1.04833 6.35667 0.969 6.096C0.889667 5.83533 0.912333 5.569 1.037 5.297L1.887 3.478L1.054 1.693C0.918 1.39833 0.889667 1.12633 0.969 0.876999C1.05967 0.616333 1.23533 0.429333 1.496 0.316C1.72267 0.214 1.94933 0.191333 2.176 0.247999C2.414 0.304666 2.60667 0.446333 2.754 0.673L3.961 2.645C4.14233 2.92833 4.233 3.206 4.233 3.478C4.233 3.75 4.14233 4.02767 3.961 4.311L2.703 6.283C2.567 6.49833 2.38 6.64 2.142 6.708C1.91533 6.76467 1.68867 6.742 1.462 6.64Z" fill="#BEBBBB"/>
</svg>
